<?xml version="1.0" standalone="no"?><!DOCTYPE svg PUBLIC "-//W3C//DTD SVG 1.1//EN" "http://www.w3.org/Graphics/SVG/1.1/DTD/svg11.dtd" ><svg xmlns="http://www.w3.org/2000/svg"><metadata></metadata><defs><font id="DFPWaWaW5-GB" horiz-adv-x="1000"><font-face font-family="DFPWaWaW5-GB" font-weight="400" font-stretch="normal" units-per-em="1000" panose-1="4 11 5 0 0 0 0 0 0 0" ascent="860" descent="-140" x-height="0" bbox="23 -101 930 821" underline-thickness="50" underline-position="-110" unicode-range="U+0020-ff09" /><missing-glyph horiz-adv-x="1000" d="M235 591 q0 -70 -9 -181 q-11 -138 -28 -189 q-8 -2 -25 -2 q-24 0 -32 5 q-2 17 -2 42 q0 197 30 376 q8 1 16 1 q30 0 49 -9 q1 -20 1 -43 ZM235 100 q0 -18 -14 -53 q-14 -35 -26 -47 q-58 14 -97 44 q7 37 39 96 q42 -2 98 -40 Z" /><glyph glyph-name="" unicode=" " d="M235 591 q0 -70 -9 -181 q-11 -138 -28 -189 q-8 -2 -25 -2 q-24 0 -32 5 q-2 17 -2 42 q0 197 30 376 q8 1 16 1 q30 0 49 -9 q1 -20 1 -43 ZM235 100 q0 -18 -14 -53 q-14 -35 -26 -47 q-58 14 -97 44 q7 37 39 96 q42 -2 98 -40 Z" /><glyph glyph-name="" unicode="%" d="M692 149 q0 -68 -38 -109 q-39 -40 -105 -40 q-64 0 -103 42 q-39 42 -39 107 q0 65 39 107 q38 43 103 43 q143 0 143 -150 ZM702 592 l-613 -592 l-49 51 l609 590 l53 -49 ZM335 494 q1 -68 -37 -109 q-38 -41 -105 -41 q-65 0 -104 42 q-39 42 -39 108 q0 65 40 107 q39 42 103 42 q66 0 105 -42 q36 -40 37 -107 ZM625 149 q0 94 -76 95 q-74 1 -74 -95 q0 -94 74 -94 q76 0 76 94 ZM267 494 q2 40 -17 66 q-18 27 -57 28 q-76 2 -76 -94 q0 -93 76 -95 q70 -2 74 95 Z" /><glyph glyph-name="" unicode="0" d="M657 298 q0 -117 -95 -208 q-96 -90 -214 -90 q-135 0 -230 90 q-95 89 -95 223 q0 134 89 230 q91 100 224 100 q38 0 82 -13 q48 -15 75 -38 q0 -12 -11 -28 q-11 -17 -22 -24 q-64 32 -128 32 q-99 0 -169 -84 q-66 -80 -66 -181 q0 -99 75 -169 q76 -71 176 -71 q84 0 162 76 q77 76 77 160 q0 72 -20 118 q-17 39 -69 99 q19 31 44 44 q115 -93 115 -266 Z" /><glyph glyph-name="" unicode="2" d="M583 534 q0 -43 -94 -196 q-101 -165 -162 -261 q42 -5 84 -5 q58 0 120 9 q9 -6 12 -29 q3 -18 1 -31 q-43 -21 -154 -21 q-109 0 -161 31 q20 54 155 277 q126 209 126 221 q0 23 -41 34 q-29 8 -63 8 q-118 0 -281 -87 q-21 21 -29 56 q58 43 148 73 q90 30 161 30 q77 0 116 -16 q62 -25 62 -93 Z" /><glyph glyph-name="" unicode="4" d="M619 137 q-77 -16 -121 -22 q-5 -49 -13 -112 q-10 -3 -27 -3 q-19 0 -33 6 q0 34 4 100 q-63 -6 -146 -6 q-142 0 -222 22 q0 220 120 521 q31 -2 58 -19 q-52 -180 -62 -219 q-31 -126 -38 -225 q30 -8 144 -8 q88 0 152 5 l28 220 q19 4 61 -4 q-14 -155 -20 -209 q87 8 107 11 q8 -18 8 -58 Z" /><glyph glyph-name="" unicode="8" d="M562 575 q-3 -31 -38 -53 q-95 55 -170 55 q-51 0 -102 -28 q-59 -32 -59 -78 q0 -38 27 -68 q18 -19 61 -47 q135 66 248 96 q12 -16 15 -26 q5 -16 5 -28 q-70 -31 -191 -82 q70 -36 104 -69 q49 -49 49 -113 q0 -64 -58 -102 q-49 -32 -115 -32 q-99 0 -148 31 q-62 39 -62 133 q0 80 91 151 q-101 62 -101 156 q0 83 83 132 q69 40 157 40 q48 0 105 -19 q57 -19 99 -49 ZM441 146 q0 43 -56 81 q-30 20 -96 50 q-89 -62 -89 -116 q0 -61 44 -82 q30 -15 101 -15 q42 0 69 21 q27 21 27 61 Z" /><glyph glyph-name="" unicode="k" d="M621 531 q-121 -63 -470 -215 l-24 -314 q-8 -2 -31 -2 q-14 0 -34 4 q-2 46 -1 97 q4 182 45 541 q17 1 18 1 q31 0 45 -7 q-7 -160 -12 -238 q254 114 441 185 q19 -19 23 -52 ZM580 65 q-17 -29 -46 -40 q-37 25 -109 107 q-60 69 -96 119 q13 25 44 40 q22 -7 105 -102 q73 -82 102 -124 Z" /><glyph glyph-name="" unicode="p" d="M635 397 q0 -115 -86 -171 q-71 -46 -190 -46 q-59 0 -97 10 q-2 6 -2 28 q0 17 6 31 q96 2 97 2 q57 3 96 14 q102 30 102 133 q0 82 -135 133 q-92 35 -201 43 q-3 17 -3 34 q0 18 4 34 q143 -5 257 -55 q152 -68 152 -190 ZM150 637 q0 -136 -6 -369 q-7 -246 -13 -265 q-21 -3 -31 -3 q-27 0 -39 6 q-1 90 -1 163 q0 217 0 237 q3 141 18 235 q18 2 38 2 q16 0 34 -6 Z" /><glyph glyph-name="" unicode="&#xff08;" d="M882 -54 l-54 -47 q-210 191 -210 462 q0 270 209 460 l55 -43 q-190 -181 -190 -417 q0 -234 190 -415 Z" /><glyph glyph-name="" unicode="&#xff09;" d="M382 361 q0 -271 -210 -462 l-54 47 q190 181 190 415 q0 236 -190 417 l55 43 q209 -190 209 -460 Z" /><glyph glyph-name="" unicode="&#x6bd4;" d="M222 616 q20 0 35 -3 q-5 -71 -9 -141 q116 -10 225 -26 q0 -27 -8 -63 q-108 0 -222 21 q-6 -87 -11 -174 q88 -10 178 -20 q0 -14 -2 -33 q0 -16 -4 -33 q-137 2 -248 21 q0 229 31 449 q18 2 35 2 ZM659 544 q17 0 33 -4 q-5 -51 -8 -99 q103 -5 199 -13 q0 -27 -8 -63 q-95 0 -197 9 q-5 -80 -8 -161 q84 -2 173 -5 l0 -29 q0 -25 -2 -33 q-24 -5 -122 -5 q-76 0 -119 10 q0 183 27 391 q12 2 32 2 Z" /><glyph glyph-name="" unicode="&#x4f4e;" d="M829 686 q9 -28 13 -65 q-216 -34 -431 -52 q-10 33 -12 64 q223 32 430 53 ZM480 514 q17 0 29 -4 q0 -158 -2 -308 q33 0 80 -4 l0 -25 q-2 -14 -2 -27 q-19 -4 -66 -4 q-59 0 -82 8 q0 176 12 362 q13 2 31 2 ZM860 457 q21 -29 25 -56 q-43 -20 -89 -36 q33 -74 63 -147 q-22 -16 -57 -23 q-37 75 -69 148 q-40 -13 -82 -24 q-24 31 -24 58 q41 16 80 29 q-19 46 -36 90 q22 12 55 20 q22 -45 42 -89 q48 17 92 30 ZM317 524 q19 -23 21 -52 q-40 -29 -85 -49 q21 -127 32 -261 q-30 -9 -63 -9 q-22 120 -36 243 q-34 -12 -71 -21 q-20 20 -28 53 q101 60 230 96 ZM649 138 q72 -14 143 -47 q-3 -27 -17 -59 q-91 17 -147 49 q11 37 21 57 Z" /><glyph glyph-name="" unicode="&#x591a;" d="M455 796 q29 -15 44 -35 q-15 -21 -32 -43 q126 -47 241 -103 q-33 -120 -96 -252 q-33 6 -61 22 q34 95 70 187 q-105 48 -198 92 q-61 -73 -148 -161 q-35 16 -53 37 q94 139 233 256 ZM353 412 q39 -9 61 -35 q-59 -124 -168 -256 q-35 8 -54 32 q56 126 161 259 ZM435 314 q143 -34 281 -92 q-80 -168 -170 -303 q-39 12 -58 31 q53 102 127 233 q-100 37 -201 70 q9 33 21 61 ZM418 550 q57 -8 124 -49 q-7 -27 -21 -51 q-68 5 -121 47 q7 29 18 53 ZM378 163 q57 -7 125 -45 q-6 -26 -21 -49 q-68 5 -121 43 q7 28 17 51 Z" /><glyph glyph-name="" unicode="&#x5206;" d="M569 369 q78 0 177 -8 q5 -72 5 -162 l0 -150 q-19 -4 -65 -4 q-39 0 -68 4 q-4 14 -4 27 l0 22 q34 4 67 4 q0 83 -6 191 q-107 1 -206 1 q-16 -63 -39 -128 q-13 -38 -29 -78 q-7 -16 -14 -38 q-7 -20 -19 -41 q-34 7 -67 21 q44 141 91 265 q-59 1 -117 1 q-6 19 -6 33 q0 15 6 32 q89 8 294 8 ZM347 697 q29 -22 54 -51 q-31 -32 -83 -75 q-26 -22 -56 -48 q-33 -30 -66 -52 q-29 20 -47 49 q97 95 198 177 ZM651 669 q102 -42 201 -95 q-2 -35 -30 -60 q-107 45 -198 96 q12 36 27 59 Z" /><glyph glyph-name="" unicode="&#x9ad8;" d="M153 676 q154 0 307 -4 q-13 37 -16 81 q26 12 60 17 q23 -35 34 -101 q158 -4 313 -13 l0 -27 q0 -21 -3 -31 q-437 0 -697 17 q-3 7 -3 30 q0 16 5 31 ZM680 560 q9 -48 9 -102 q0 -79 -4 -88 q-125 -16 -361 -16 q-23 78 -28 191 q176 15 384 15 ZM379 415 l243 7 l-4 79 l-246 -7 l7 -79 ZM330 319 q238 0 507 -21 q9 -119 9 -220 q0 -71 -7 -112 q-10 -13 -142 -13 q-10 26 -10 50 q40 6 87 8 q-2 116 -7 229 q-223 6 -443 21 q0 30 6 58 ZM199 312 q22 -2 29 -6 q-1 -160 -5 -322 q-8 -4 -34 -4 q-20 0 -33 6 q2 173 8 324 q16 2 35 2 ZM610 194 q15 -81 15 -168 q-116 -21 -255 -23 q-24 53 -30 170 q125 21 270 21 ZM428 61 l129 10 l-12 65 l-131 -8 l14 -67 Z" /><glyph glyph-name="" unicode="&#x53f7;" d="M338 309 q-73 6 -144 14 q-5 17 -5 32 q0 17 5 31 q299 -15 601 -41 q5 -15 5 -33 q0 -13 -5 -28 q-197 4 -387 19 q-5 -42 -11 -88 q161 -12 325 -36 q-2 -115 -44 -225 q-15 -4 -54 -4 q-27 0 -71 11 l0 39 q39 1 73 1 q10 69 18 124 q-146 5 -319 37 q0 76 13 147 ZM386 735 q219 -9 431 -46 q0 -56 -10 -115 q-8 -74 -23 -156 q-268 0 -531 35 q-7 71 -7 168 q2 73 4 105 q14 2 34 2 q17 0 33 -2 q1 -52 1 -103 l0 -111 q205 -24 405 -24 q18 70 20 142 q-180 29 -361 47 q0 31 4 58 Z" /><glyph glyph-name="" unicode="&#x8ba1;" d="M115 476 q90 -12 190 -31 q-6 -159 -26 -313 q34 -4 71 -8 q0 -22 -4 -52 q-62 0 -137 10 q8 153 28 311 q-65 11 -130 27 q0 28 8 56 ZM174 647 q62 -8 136 -49 q-6 -24 -18 -45 q-76 6 -134 47 q6 25 16 47 ZM648 714 q19 0 35 -4 q0 -152 -3 -290 q98 -5 196 -11 q6 -15 6 -35 q0 -14 -6 -30 q-100 1 -196 6 q0 -175 -3 -335 q-11 -2 -34 -2 q-18 0 -31 3 q-7 167 -8 337 q-94 5 -187 12 q-5 18 -5 34 q0 17 5 33 q94 -3 187 -8 q1 142 11 288 q15 2 33 2 Z" /><glyph glyph-name="" unicode="&#x5747;" d="M566 718 q31 -15 59 -37 q-21 -40 -45 -79 q151 -21 314 -51 q0 -206 -44 -524 q-7 -4 -36 -4 q-42 0 -96 11 q0 15 2 48 q36 -4 70 -5 q23 209 28 423 q-139 23 -274 45 q-35 -55 -76 -108 q-6 0 -30 15 q-22 13 -26 20 q59 108 154 246 ZM658 225 q12 -30 12 -58 q-85 -24 -177 -31 q-10 28 -12 58 q80 22 177 31 ZM573 389 q45 0 70 -2 q4 -14 4 -31 q0 -16 -2 -30 q-23 -5 -76 -5 q-49 0 -72 3 q-6 12 -6 30 q0 17 4 31 q17 4 78 4 ZM118 501 q50 -2 101 -6 q1 54 2 94 q16 2 35 2 q18 0 33 -6 q0 -47 0 -96 q44 -5 88 -11 q0 -30 -7 -67 q-42 0 -82 2 q-1 -72 -2 -149 q35 2 69 3 q4 -30 4 -64 q-122 -11 -234 -11 q-7 30 -7 62 q49 4 99 7 q0 89 1 158 q-53 5 -102 15 q0 35 2 67 Z" /><glyph glyph-name="" unicode="&#x79d1;" d="M422 663 q8 -30 8 -64 q-164 -29 -330 -36 q-14 24 -14 66 q161 21 336 34 ZM89 402 q66 0 142 -4 q1 62 5 125 q15 4 33 4 q19 0 33 -4 q4 -70 5 -129 q59 -4 123 -10 q0 -30 -6 -65 q-59 0 -116 2 l0 -66 q58 -6 112 -17 q-3 -15 -5 -30 q-2 -22 -6 -32 q-36 0 -71 7 q-16 2 -31 5 q-1 -77 -4 -142 q-8 -4 -33 -4 q-19 0 -27 4 q-7 71 -10 148 q-55 -41 -114 -72 q-26 18 -40 42 q63 62 152 109 q-1 25 -1 50 l0 2 q-73 5 -143 13 l0 35 q0 15 2 29 ZM923 328 q7 -27 7 -58 q-41 -10 -82 -19 q1 -63 1 -229 q-10 -5 -34 -5 q-27 0 -36 3 q-12 82 -14 215 q-133 -23 -267 -31 q-12 22 -12 59 q136 27 279 46 q0 121 4 328 q21 4 40 4 q19 0 36 -4 q2 -227 2 -317 q39 4 76 8 ZM514 632 q77 -8 168 -50 q-6 -26 -20 -50 q-93 6 -165 48 q6 28 17 52 ZM475 465 q83 -6 157 -17 q-2 -13 -4 -27 q-2 -19 -5 -29 q-39 0 -77 5 q-38 4 -77 11 q0 28 6 57 Z" /><glyph glyph-name="" unicode="&#x4f8b;" d="M159 461 q-31 -7 -61 -12 q-12 26 -12 55 q109 49 216 59 q14 -26 14 -59 q-47 -16 -91 -27 q14 -98 21 -203 q-30 -9 -63 -9 q-16 97 -24 196 ZM881 524 q26 -175 37 -352 q-26 -12 -67 -12 q-38 0 -73 3 q-2 12 -2 24 l0 27 q43 1 65 1 q-10 149 -28 295 q35 14 68 14 ZM748 450 q8 -88 13 -172 q-32 -5 -64 -5 q-14 85 -18 171 q32 6 69 6 ZM364 651 q154 -13 299 -37 q0 -23 -7 -54 q-84 0 -171 12 q-19 -51 -38 -102 q102 -13 189 -31 q-27 -111 -60 -207 q-42 -145 -72 -188 q-35 5 -55 17 q24 84 48 163 q-48 12 -91 28 q9 29 21 55 q43 -11 89 -25 q17 55 34 106 q-73 9 -128 18 q-27 -66 -56 -135 q-32 2 -57 18 q44 157 111 293 q-31 5 -62 12 q0 31 6 57 Z" /><glyph glyph-name="" unicode="&#x76ee;" d="M367 701 q215 0 438 -21 q8 -198 8 -375 q0 -192 -12 -256 q-70 -28 -294 -28 q-263 11 -307 35 q-8 39 -8 122 q2 237 8 492 q35 0 64 -4 q0 -94 1 -186 q36 1 75 1 q88 0 142 -6 q3 -9 3 -29 q0 -21 -3 -28 q-14 -5 -142 -5 q-49 0 -75 1 q0 -53 0 -103 q39 1 83 1 q85 0 137 -6 q3 -8 3 -28 q0 -20 -3 -27 q-13 -5 -137 -5 q-54 0 -83 1 q0 -72 1 -141 q118 -15 258 -18 q203 0 215 26 q-2 249 -2 499 q-193 10 -373 27 q-2 11 -2 28 q0 17 5 33 Z" /><glyph glyph-name="" unicode="&#x80fd;" d="M180 357 q34 -2 63 -6 q-2 -43 -5 -83 l33 0 q35 0 54 -1 q4 -12 4 -28 q0 -14 -2 -27 q-18 -5 -59 -5 q-19 0 -34 1 q-1 -27 -3 -53 q15 1 34 1 q41 0 64 -1 q4 -13 4 -28 q0 -14 -2 -27 q-21 -6 -69 -6 q-21 0 -35 1 q-3 -49 -7 -95 q-33 4 -64 8 q10 180 24 349 ZM290 379 q103 0 185 -6 q28 -192 28 -360 q-43 -7 -119 -7 q-7 26 -7 43 q33 3 61 7 q-9 128 -20 255 q-65 6 -129 10 q-2 11 -2 31 q0 12 3 27 ZM645 670 q18 0 27 -4 q0 -44 -1 -95 q93 11 177 11 q4 -12 4 -25 q0 -16 -4 -28 q-46 -11 -178 -21 q-1 -39 -2 -82 q83 -2 161 -7 q1 -14 1 -29 l0 -29 q-13 -4 -44 -4 q-153 2 -180 12 q-4 42 -4 127 q0 77 10 172 q17 2 33 2 ZM653 304 q17 0 27 -4 q0 -38 -1 -79 q96 10 183 10 q4 -12 4 -26 q0 -15 -4 -27 q-48 -11 -185 -21 q-2 -40 -4 -81 q80 -1 157 -6 q1 -13 1 -29 l0 -29 q-13 -4 -44 -4 q-150 2 -176 12 q-1 36 -1 110 q0 76 10 172 q17 2 33 2 ZM491 607 q22 -38 31 -114 q-26 -14 -52 -17 q-25 47 -30 116 q22 11 51 15 ZM266 706 q34 -8 65 -23 q-40 -81 -78 -163 q88 -10 179 -15 q0 -29 -9 -58 q-134 0 -267 21 q50 136 110 238 Z" /><glyph glyph-name="" unicode="&#x5e73;" d="M151 723 q335 0 665 -24 l0 -30 q0 -23 -4 -34 q-416 0 -663 19 q-4 8 -4 35 q0 17 6 34 ZM793 459 q37 -9 58 -34 q-39 -77 -110 -160 q-34 7 -51 30 q35 80 103 164 ZM611 181 q98 0 157 -8 q4 -9 4 -31 q0 -24 -4 -32 q-15 -5 -157 -5 l-81 0 q-3 -68 -8 -125 q-8 -4 -34 -4 q-20 0 -28 4 q-4 60 -6 125 q-240 1 -267 5 q-4 13 -4 33 q0 19 6 34 q123 3 263 3 l0 56 q0 98 6 204 q16 4 34 4 q20 0 34 -4 q6 -108 6 -198 l0 -61 l79 0 ZM226 459 q52 -66 96 -141 q-19 -22 -59 -38 q-56 68 -96 144 q30 26 59 35 Z" /><glyph glyph-name="" unicode="&#x8bf7;" d="M415 674 q72 2 175 2 q1 27 3 54 q16 4 33 4 q20 0 34 -4 q1 -28 2 -54 q132 -1 190 -6 q2 -12 2 -27 l0 -29 q-24 -7 -190 -8 q1 -30 1 -56 q109 -1 159 -6 q2 -11 2 -26 l0 -27 q-21 -7 -161 -8 l0 -48 q104 2 212 2 q2 -12 2 -28 l0 -29 q-247 -17 -488 -17 q-6 29 -6 60 q103 6 211 10 q-5 25 -7 50 q-110 0 -159 8 q-4 13 -4 29 q0 17 2 28 q66 2 159 2 q0 28 1 56 q-118 0 -171 7 q-3 14 -3 32 q0 17 1 29 ZM554 221 q61 0 96 -5 q4 -13 4 -29 q0 -14 -2 -27 q-31 -2 -102 -2 q-20 0 -33 1 q-1 -23 -3 -46 l28 0 q68 0 106 -1 q4 -13 4 -28 q0 -14 -2 -27 q-34 -6 -112 -6 q-16 0 -28 1 q-3 -45 -8 -90 q-7 -4 -35 -4 q-21 0 -35 6 q6 167 22 314 q17 1 37 1 q23 -1 31 -5 q-1 -28 -2 -53 l34 0 ZM554 332 q119 0 289 -10 q12 -175 12 -346 q-44 -14 -107 -18 q-13 18 -13 43 q21 6 52 12 q-12 130 -18 248 q-219 7 -223 13 q0 32 8 58 ZM102 464 q96 -12 202 -31 q-6 -159 -26 -314 q35 -4 73 -8 q0 -22 -4 -52 q-63 0 -139 10 q8 153 28 312 q-71 10 -142 27 q0 28 8 56 ZM170 634 q73 -8 158 -48 q-5 -24 -18 -45 q-88 5 -156 46 q6 26 16 47 Z" /><glyph glyph-name="" unicode="&#x5165;" d="M353 621 q268 -221 512 -463 q-18 -31 -47 -50 q-159 130 -303 262 q-97 -134 -278 -303 q-34 18 -47 49 q131 169 270 305 q-81 76 -156 151 q24 30 49 49 Z" /><glyph glyph-name="" unicode="&#x5c11;" d="M518 731 q49 -215 58 -424 q-36 -18 -142 -18 q-5 24 -5 51 q33 4 69 9 q-22 191 -44 372 q27 6 64 10 ZM285 542 q29 -19 39 -47 q-75 -81 -162 -140 q-27 19 -42 45 q66 81 165 142 ZM737 233 q21 -20 35 -50 q-168 -132 -335 -223 q-27 29 -40 57 q165 117 340 216 ZM747 528 q75 -33 143 -89 q-13 -30 -37 -49 q-77 37 -138 89 q15 28 32 49 Z" /><glyph glyph-name="" unicode="&#x8bbe;" d="M471 681 q23 -2 31 -6 q-3 -119 -14 -240 q-8 -3 -34 -3 q-21 0 -34 5 q4 129 15 242 q17 2 36 2 ZM537 677 q99 0 225 -10 q4 -65 4 -96 l0 -74 q43 -2 98 -7 l0 -26 q0 -17 -2 -28 q-22 -3 -55 -3 q-49 0 -108 7 q-4 102 -4 171 q-84 0 -158 7 q-2 10 -2 30 q0 15 2 29 ZM456 354 q239 -4 331 -16 q-12 -94 -46 -194 q60 -14 119 -30 q-5 -32 -22 -62 q-63 12 -122 25 q-21 -52 -45 -103 q-25 0 -56 17 q16 52 32 101 q-97 23 -187 50 q10 32 23 62 q94 -20 186 -42 q18 59 36 117 q-130 4 -254 12 q0 36 5 63 ZM130 480 q88 -12 185 -30 q-6 -157 -26 -310 q43 -5 90 -9 q0 -24 -4 -57 q-71 0 -156 11 q8 152 28 311 q-63 9 -125 25 q0 29 8 59 ZM191 651 q67 -7 145 -48 q-5 -24 -18 -45 q-80 6 -142 47 q6 25 15 46 Z" /><glyph glyph-name="" unicode="&#x8f93;" d="M90 596 q48 0 94 -1 q25 50 53 101 q26 -9 55 -26 q-18 -41 -35 -79 q73 -3 145 -10 l0 -28 q0 -21 -4 -32 q-96 0 -172 3 q-30 -67 -59 -128 q45 -2 89 -5 q1 39 3 77 q14 3 29 3 q16 0 28 -3 q2 -42 3 -81 q38 -2 75 -4 q0 -30 -6 -58 q-37 0 -67 1 l0 -23 q0 -34 -1 -66 q43 3 81 3 q4 -11 4 -25 q0 -15 -4 -26 q-29 -9 -82 -18 q-2 -74 -8 -137 q-6 -4 -28 -4 q-16 0 -23 4 q-3 61 -5 128 q-64 -8 -150 -15 q-14 20 -14 58 q85 18 163 27 l0 96 q-141 5 -186 20 q27 67 79 174 q2 4 3 6 q-34 2 -62 5 q-4 7 -4 31 q0 16 6 32 ZM530 504 q123 -4 245 -22 q0 -29 -6 -57 q-123 0 -245 18 q0 31 6 61 ZM755 314 q13 -98 14 -177 q-15 -8 -53 -8 q-17 78 -17 180 q29 5 56 5 ZM855 386 q34 -191 40 -377 q-30 -14 -120 -14 q-5 22 -5 48 q27 2 55 5 q-14 169 -28 329 q24 5 58 9 ZM527 372 q65 0 138 -7 q0 -235 -13 -386 q-92 0 -109 13 q0 22 2 41 q27 0 48 -2 q1 149 3 283 q-36 2 -71 7 q-1 12 -1 26 q0 17 3 25 ZM497 212 q-2 -26 -4 -51 q34 -3 74 -12 q0 -27 -8 -49 q-43 0 -73 6 q-4 -43 -10 -84 q-7 -4 -30 -4 q-19 0 -31 5 q8 170 30 319 q15 1 32 1 q21 -1 28 -5 q-2 -37 -5 -72 q32 -2 67 -9 q0 -27 -8 -49 q-37 0 -62 4 ZM609 743 q32 -14 59 -32 q-10 -14 -20 -28 q137 -74 259 -160 q-11 -26 -33 -52 q-133 69 -267 159 q-18 -22 -37 -45 q-33 -39 -67 -78 q-33 -42 -62 -71 q-32 13 -50 34 q122 163 218 273 Z" /><glyph glyph-name="" unicode="&#x540c;" d="M538 668 q145 0 251 -6 q44 -305 44 -622 q-61 -13 -127 -13 q-9 17 -11 52 q31 5 66 9 q-10 254 -39 507 q-65 -1 -187 -1 q-63 -3 -147 -5 q-7 30 -7 68 q63 7 157 11 ZM342 451 q129 -4 265 -19 q0 -25 -6 -56 q-140 0 -261 20 q0 28 2 55 ZM610 293 q6 -90 6 -180 q-117 -9 -229 -9 q-17 96 -21 182 q118 7 244 7 ZM438 233 l8 -71 l102 6 l-4 69 l-106 -4 ZM214 603 q20 0 37 -4 q0 -170 -3 -322 q0 -121 -2 -230 q-12 -2 -35 -2 q-20 0 -34 4 q-9 108 -9 220 q0 162 11 332 q16 2 35 2 Z" /><glyph glyph-name="" unicode="&#x7f51;" d="M613 668 q149 0 238 -2 q20 -179 20 -377 q0 -128 -4 -246 q-37 -6 -107 -6 q-44 0 -66 4 q-5 22 -5 47 q52 4 115 6 q0 250 -15 508 q-217 -4 -461 -18 q-6 18 -6 35 q0 16 4 28 q99 15 287 21 ZM182 595 q21 0 31 -4 q22 -237 22 -519 q-12 -3 -33 -3 q-26 0 -33 1 q-20 280 -20 519 q6 4 33 6 ZM438 423 q28 -16 46 -35 q-29 -43 -66 -82 q34 -31 67 -62 q-10 -27 -39 -48 q-40 30 -76 60 q-11 -11 -22 -22 q-24 -27 -53 -52 q-24 16 -42 39 q31 41 67 81 q-33 32 -62 65 q18 30 37 47 q37 -31 71 -61 q35 36 72 70 ZM704 441 q28 -16 45 -35 q-30 -53 -67 -101 q29 -30 58 -61 q-10 -27 -39 -48 q-33 27 -62 56 q-12 -13 -23 -26 q-23 -32 -51 -61 q-25 16 -42 38 q32 51 68 99 q-32 34 -59 69 q17 29 37 47 q32 -30 63 -62 q35 44 72 85 Z" /><glyph glyph-name="" unicode="&#x5b66;" d="M515 736 q28 -37 40 -113 q-28 -15 -55 -18 q-32 47 -37 116 q22 11 52 15 ZM735 735 q37 -3 63 -18 q-29 -93 -48 -130 q-38 0 -62 15 q18 77 47 133 ZM273 726 q53 -67 75 -121 q-16 -14 -52 -28 q-44 46 -78 121 q24 19 55 28 ZM207 533 q17 0 33 -5 q0 -95 -11 -213 q-11 -4 -34 -4 q-23 0 -32 8 q0 140 10 212 q15 2 34 2 ZM291 549 q284 0 558 -3 q13 -103 13 -197 q-10 -4 -29 -4 q-12 0 -32 2 q-9 44 -18 138 q-242 0 -490 3 q-4 14 -4 33 q0 13 2 28 ZM320 393 q169 -7 343 -40 q-34 -87 -89 -168 q3 -11 6 -22 q108 4 223 7 q4 -11 4 -28 q0 -23 -2 -33 q-105 -6 -210 -10 q14 -74 14 -141 q-17 -6 -70 -6 q-39 0 -74 10 q0 24 4 47 l76 0 q-11 43 -20 87 q-144 -5 -290 -6 q-3 28 -3 59 q131 7 279 12 q-4 19 -7 36 q27 49 59 105 q-125 12 -250 32 q0 31 7 59 Z" /><glyph glyph-name="" unicode="&#x9875;" d="M207 734 q297 -6 591 -37 q0 -33 -7 -63 q-137 0 -272 7 q-25 -67 -43 -97 q-39 0 -63 16 q12 48 29 86 q-123 7 -242 20 q0 35 7 68 ZM239 509 q31 0 66 -5 q0 -165 -23 -313 q-32 0 -66 4 q0 153 23 314 ZM388 523 q188 -2 389 -20 q0 -170 -9 -303 q-16 -5 -36 -5 q-23 0 -37 10 l0 230 q-157 4 -307 21 q-5 13 -5 35 q0 17 5 32 ZM492 385 q41 -8 70 -25 q-47 -102 -103 -203 q148 -46 280 -124 q-8 -27 -29 -56 q-129 35 -286 117 q-39 -68 -82 -136 q-37 6 -64 29 q99 209 214 398 Z" /><glyph glyph-name="" unicode="&#x4e00;" d="M176 416 q305 0 606 -11 q0 -12 0 -32 q0 -24 -4 -36 q-378 0 -604 7 q-4 8 -4 36 q0 18 6 36 Z" /><glyph glyph-name="" unicode="&#x82f1;" d="M863 211 q3 -11 3 -27 q0 -22 -2 -31 q-194 -23 -391 -35 q-25 -76 -55 -165 q-35 6 -62 22 q14 67 35 138 q-119 -6 -239 -9 q-4 27 -4 55 q126 13 263 23 q28 92 66 194 q-79 2 -157 6 q-3 13 -3 31 q0 13 2 28 q92 0 182 -2 q17 45 35 89 q39 -3 66 -21 q-10 -27 -24 -69 q108 -2 213 -7 q16 -105 16 -200 q-11 -4 -31 -4 q-14 0 -36 2 q-10 45 -21 142 q-81 0 -162 2 q-26 -77 -61 -185 q175 13 367 23 ZM271 443 q26 -123 34 -245 q-17 -4 -35 -6 q-12 -2 -35 -2 q-24 120 -32 242 q31 6 68 11 ZM587 113 q99 -40 199 -89 q-12 -25 -35 -52 q-111 36 -197 81 q16 33 33 60 ZM365 762 q7 -52 12 -102 q137 -2 272 -6 q14 50 32 102 q31 -4 61 -16 q-8 -46 -17 -89 q76 -2 150 -5 l0 -28 q0 -15 -6 -31 q-80 0 -159 1 q-11 -45 -24 -87 l-41 6 q-16 4 -27 10 q5 35 14 72 q-125 2 -249 6 q4 -32 6 -63 q-33 -6 -66 -6 q-7 36 -12 71 q-87 3 -173 7 q-4 17 -4 31 q0 14 2 27 q85 0 167 -1 q-6 47 -8 95 q33 6 70 6 Z" /><glyph glyph-name="" unicode="&#x4e0e;" d="M332 660 q35 0 66 -8 q-5 -34 -9 -67 q176 17 371 17 q2 -12 2 -28 l0 -29 q-194 -23 -384 -24 q-11 -68 -24 -137 q227 -8 457 -25 q-3 -188 -59 -370 q-16 -3 -55 -3 q-41 0 -109 17 l0 49 q59 -2 111 -2 q19 141 34 254 q-207 4 -451 27 q0 168 50 329 ZM150 210 q242 0 478 -34 l0 -25 q0 -15 -6 -30 q-235 0 -470 33 q-4 17 -4 30 q0 13 2 26 Z" /><glyph glyph-name="" unicode="&#x8bed;" d="M115 476 q86 -12 180 -31 q-6 -159 -26 -313 q39 -4 81 -8 q0 -22 -4 -52 q-66 0 -147 10 q8 153 28 311 q-60 11 -120 27 q0 28 8 56 ZM174 647 q62 -8 136 -49 q-6 -24 -18 -45 q-76 6 -134 47 q6 25 16 47 ZM469 735 q209 -23 417 -64 q-2 -30 -15 -58 q-142 0 -417 62 q4 34 15 60 ZM550 500 q16 56 34 105 q39 -4 65 -20 q-11 -48 -20 -85 q97 -2 206 -10 q7 -52 13 -139 q-31 -9 -67 -9 q-9 51 -14 89 q-85 1 -155 2 q-20 -74 -35 -114 q-39 0 -64 16 q10 53 21 100 q-65 2 -115 6 q-6 26 -6 54 q73 4 137 5 ZM753 298 q91 0 145 -7 q4 -9 4 -29 q0 -22 -4 -29 q-13 -5 -145 -5 q-343 0 -374 5 q-4 12 -4 30 q0 18 6 31 q168 4 372 4 ZM785 160 q9 -50 9 -106 q0 -82 -4 -92 q-100 -15 -290 -15 q-23 80 -29 197 q144 16 314 16 ZM559 8 l165 7 l-4 85 l-169 -7 l8 -85 Z" /><glyph glyph-name="" unicode="&#x9662;" d="M110 619 q141 -10 288 -57 q-46 -116 -119 -225 q49 -72 49 -200 q-18 -7 -48 -7 q-50 0 -87 4 q7 -36 12 -71 q-31 -12 -61 -12 q-39 113 -53 230 q28 10 57 12 q18 -49 30 -98 q46 -3 92 -4 q-23 76 -56 152 q42 87 86 174 q-97 23 -195 44 q0 33 5 58 ZM464 647 q16 0 30 -5 q0 -77 -11 -173 q-10 -3 -31 -3 q-21 0 -30 7 q0 114 10 172 q14 2 32 2 ZM519 635 q66 0 131 -1 q-6 45 -8 90 q11 6 32 9 q24 0 33 -5 q7 -46 9 -95 q92 -2 182 -6 q6 -79 6 -152 q-11 -4 -30 -4 q-12 0 -33 2 q-5 31 -10 99 q-154 0 -311 8 q-3 12 -3 29 q0 12 2 26 ZM524 479 q135 -4 278 -19 q0 -25 -6 -55 q-147 0 -274 19 q0 28 2 55 ZM859 311 q3 -13 3 -29 l0 -30 q-194 -14 -393 -20 q-5 31 -5 61 q98 7 196 11 q98 5 199 7 ZM787 176 q5 -62 11 -123 q23 0 69 -1 q3 -12 3 -28 l0 -28 q-2 -4 -68 -4 q-22 0 -60 1 q-18 89 -18 177 q27 4 63 6 ZM550 179 q37 -3 62 -18 q-31 -130 -51 -181 q-37 0 -60 15 q19 106 49 184 Z" /><glyph glyph-name="" unicode="&#x53ea;" d="M378 690 q180 -4 375 -22 q8 -86 8 -193 q0 -139 -6 -180 q-60 -6 -253 -6 q-170 0 -280 24 q-4 29 -4 168 q0 53 16 172 q33 0 72 -5 q-4 -134 -14 -279 q219 -11 393 -11 q0 124 -2 244 q-162 2 -309 21 l0 33 q0 20 4 34 ZM316 198 q32 -9 65 -23 q-29 -78 -80 -157 q-36 9 -61 30 q35 81 76 150 ZM686 170 q43 -49 77 -108 q-23 -21 -55 -36 q-46 51 -76 109 q23 19 54 35 Z" /><glyph glyph-name="" unicode="&#x6700;" d="M356 756 q175 -6 356 -22 q13 -36 13 -141 q0 -62 -4 -114 q-14 -19 -328 -19 q-102 0 -161 11 q-10 109 -10 256 l65 0 q2 -46 3 -87 q89 -4 181 -16 q0 -24 -6 -53 q-92 0 -174 12 q1 -28 1 -53 q63 -7 166 -7 q137 0 197 3 q0 71 -6 152 q-148 7 -295 20 q0 31 2 58 ZM855 425 q3 -11 3 -27 q0 -22 -1 -31 q-295 -18 -600 -23 q2 -24 3 -47 q57 7 118 11 q3 -23 3 -48 q-62 -10 -119 -12 q1 -28 2 -54 q53 8 109 12 q3 -22 3 -48 q-58 -13 -111 -15 q1 -23 1 -45 q81 10 165 13 q-8 103 -8 193 q6 4 32 6 q20 0 29 -4 q13 -92 19 -192 l34 0 q2 -11 2 -25 l0 -26 q-18 -3 -34 -5 q1 -40 1 -81 q-11 -3 -32 -3 q-24 0 -31 2 q-4 37 -7 72 q-133 -17 -263 -17 q-6 26 -6 54 q18 3 35 5 q-12 127 -13 253 q-26 -1 -50 -1 q-3 27 -3 56 q318 16 719 27 ZM550 302 q190 -3 263 -10 q-12 -80 -48 -168 q55 -13 106 -26 q-7 -30 -20 -57 q-59 11 -112 23 q-17 -35 -36 -69 q-26 0 -57 18 q12 34 25 66 q-56 13 -108 28 q8 35 19 57 q57 -11 112 -24 q19 52 37 101 q-95 2 -186 6 q0 32 5 55 Z" /></font>
</defs>
</svg>
